<svg width="649" height="579" viewBox="0 0 649 579" fill="none" xmlns="http://www.w3.org/2000/svg">
<rect x="248" y="57.894" width="234.339" height="27.0517" rx="13.5258" transform="rotate(-35.7444 248 57.894)" fill="#9EDC37"/>
<rect x="498.461" y="498.797" width="61.2787" height="27.0517" rx="13.5258" transform="rotate(-35.7444 498.461 498.797)" fill="#9EDC37"/>
<rect x="147" y="131.423" width="96.5864" height="27.0517" rx="13.5258" transform="rotate(-35.7444 147 131.423)" fill="#C7C7C7"/>
<rect x="532" y="556.743" width="199.844" height="27.0517" rx="13.5258" transform="rotate(-35.7444 532 556.743)" fill="#C7C7C7"/>
<rect x="303" y="181.423" width="96.5864" height="27.0517" rx="13.5258" transform="rotate(-35.7444 303 181.423)" fill="#9EDC37"/>
<rect x="175" y="24.4229" width="96.5864" height="27.0517" rx="13.5258" transform="rotate(-35.7444 175 24.4229)" fill="#C7C7C7"/>
<rect x="0.0379028" y="151.816" width="191.41" height="27.0517" rx="13.5258" transform="rotate(-35.7444 0.0379028 151.816)" fill="#EA125F"/>
<rect x="4" y="64.8162" width="191.41" height="27.0517" rx="13.5258" transform="rotate(-35.7444 4 64.8162)" fill="#C7C7C7"/>
<rect x="561" y="449.816" width="191.41" height="27.0517" rx="13.5258" transform="rotate(-35.7444 561 449.816)" fill="#C7C7C7"/>
<rect x="168.741" y="197.208" width="392.366" height="27.0517" rx="13.5258" transform="rotate(-35.7444 168.741 197.208)" fill="#63D4E8"/>
<rect x="398" y="110.208" width="392.366" height="27.0517" rx="13.5258" transform="rotate(-35.7444 398 110.208)" fill="#EA125F"/>
<rect x="336" y="236.208" width="392.366" height="27.0517" rx="13.5258" transform="rotate(-35.7444 336 236.208)" fill="#63D4E8"/>
<rect x="565" y="160.208" width="392.366" height="27.0517" rx="13.5258" transform="rotate(-35.7444 565 160.208)" fill="#C7C7C7"/>
<rect x="241" y="403.208" width="392.366" height="27.0517" rx="13.5258" transform="rotate(-35.7444 241 403.208)" fill="#9EDC37"/>
<rect x="454" y="354.208" width="392.366" height="27.0517" rx="13.5258" transform="rotate(-35.7444 454 354.208)" fill="#63D4E8"/>
<rect x="398" y="487.208" width="392.366" height="27.0517" rx="13.5258" transform="rotate(-35.7444 398 487.208)" fill="#EA125F"/>
</svg>
